<svg width="47" height="56" viewBox="0 0 47 56" fill="none" xmlns="http://www.w3.org/2000/svg">
<path d="M40.8172 0.233887H5.28764C2.39741 0.233887 0.0253906 2.54983 0.0253906 5.4401V50.4301C0.0253906 53.3204 2.39741 55.687 5.28764 55.687H26.1701C26.7404 55.687 27.2873 55.453 27.6905 55.0497L45.4202 37.3072C45.8234 36.9041 46.041 36.3533 46.041 35.7831V5.44013C46.041 2.54983 43.7075 0.233887 40.8172 0.233887ZM4.32105 50.4302V5.4401C4.32105 4.92094 4.76858 4.52955 5.28764 4.52955H40.8172C41.3363 4.52955 41.7453 4.92094 41.7453 5.4401V32.5815H28.1865C25.2963 32.5815 22.9356 34.9093 22.9356 37.7996V51.3913H5.28764C4.76858 51.3913 4.32105 50.9493 4.32105 50.4302ZM27.2313 49.4059V37.7996C27.2313 37.2805 27.6674 36.8772 28.1865 36.8772H39.7929L27.2313 49.4059Z" fill="#1FBAD1"/>
</svg>
