<svg width="45" height="58" viewBox="0 0 45 58" fill="none" xmlns="http://www.w3.org/2000/svg">
<path d="M40.9669 6.87413H34.9326V4.8627C34.9326 3.79577 34.5087 2.77254 33.7543 2.01811C32.9999 1.26368 31.9766 0.839844 30.9097 0.839844H14.8183C13.7514 0.839844 12.7281 1.26368 11.9737 2.01811C11.2193 2.77254 10.7954 3.79577 10.7954 4.8627V6.87413H4.76114C3.69421 6.87413 2.67098 7.29797 1.91655 8.0524C1.16212 8.80683 0.738281 9.83006 0.738281 10.897V53.137C0.738281 54.2039 1.16212 55.2271 1.91655 55.9816C2.67098 56.736 3.69421 57.1598 4.76114 57.1598H40.9669C42.0338 57.1598 43.057 56.736 43.8114 55.9816C44.5659 55.2271 44.9897 54.2039 44.9897 53.137V10.897C44.9897 9.83006 44.5659 8.80683 43.8114 8.0524C43.057 7.29797 42.0338 6.87413 40.9669 6.87413ZM14.8183 4.8627H30.9097V12.9084H14.8183V4.8627ZM40.9669 53.137H4.76114V10.897H10.7954V16.9313H34.9326V10.897H40.9669V53.137Z" fill="#1FBAD1"/>
</svg>
